<svg width="106" height="40" viewBox="0 0 106 40" fill="none" xmlns="http://www.w3.org/2000/svg">
<path d="M66.0371 27C68.0725 27 69.4469 27.7729 69.9043 29.1094C70.0595 29.6214 70.1094 30.0108 70.1094 31.2676L70.0898 35.3799C70.0898 36.63 70.2051 37.2305 71.2783 38.0518L69.667 39.8184L69.499 40L69.1299 39.8184C68.5647 39.4975 68.0742 39.0175 67.8193 38.5088C67.563 38.7631 67.3101 39.0293 67.0537 39.1855C66.5718 39.5097 65.9603 39.7386 65.248 39.8184H63.9697C61.7203 39.5973 60.5371 38.2495 60.5371 36.0469C60.5371 33.2225 62.4712 31.8838 66.292 31.8838H67.0322V31.4219C67.0322 30.0856 66.748 29.5617 65.5771 29.5615C64.5594 29.5615 63.4232 29.919 61.9922 30.835L60.834 28.7393C61.4368 28.3636 62.0748 28.0073 62.7266 27.7197C63.8959 27.2012 64.9167 27 66.0371 27ZM87.8809 22.9736V32.1836L90.9912 27H94.8213L90.9404 32.0361L95.6904 39H91.9902L87.8809 32.1904V39.001H84.9512V22.5254L87.8809 22.9736ZM18.5518 32.6406L12.335 39H0V26.3691L6.21094 20L18.5518 32.6406ZM37.1045 26.2744V39H24.792L18.5527 32.6406L30.9561 20L37.1045 26.2744ZM52.3213 25.5586H47.1377V29.3066H51.3018V31.9023H47.1377V39H43.9395V23H52.7275L52.3213 25.5586ZM59.3721 27C59.8283 27 60.0316 27.0482 60.5381 27.2471L59.7412 29.9756C59.4361 29.8281 59.0302 29.7267 58.6748 29.7266C58.105 29.7266 57.5963 29.9524 57.2959 30.2715C56.9404 30.6547 56.8399 31.1538 56.8398 31.7471V39H53.7031V27.6514L56.2344 27.2471L56.5391 28.833C57.0439 28.0424 58.2081 27.0002 59.3721 27ZM79.7939 27C81.1578 27.0001 82.4189 27.7003 82.7861 28.7012C82.9461 29.1508 82.9971 29.649 82.9971 30.3994V39H79.8477V31.501C79.8477 30.1539 79.5848 29.5987 78.6924 29.5986C78.167 29.5986 77.6414 29.8025 77.1699 30.2002C76.7506 30.6012 76.4864 31.2048 76.4863 32.0537V39H73.2324V27.4512L75.9658 27.0293L76.1709 28.5996C76.538 28.15 77.0635 27.7517 77.5889 27.501C78.2187 27.1484 79.0597 27 79.7939 27ZM66.7988 33.9668C64.6066 33.9668 63.8955 34.5057 63.8955 35.9453C63.8955 36.8713 64.458 37.54 65.2715 37.54C65.8824 37.54 66.5244 37.305 66.9834 36.7881L66.9795 33.9668H66.7988ZM83.9619 16.5635C83.9619 18.2098 83.9138 19.9065 82.7939 20.8516C81.721 21.798 80.063 21.9999 78.8945 22C77.3787 22 76.0144 21.548 74.5518 20.7998L75.2832 18.6602C76.4031 19.2568 77.6721 19.6571 78.7451 19.6572C80.9867 19.6572 81.1357 18.8087 81.1357 17.0156V16.0156C80.7932 16.6139 79.7216 17.1621 78.7939 17.1621C75.4277 17.1621 74.2091 14.321 74.209 11.4297C74.209 8.33995 75.3795 5.04492 78.9414 5.04492C80.0612 5.04507 80.9827 5.64719 81.5254 6.27441C81.5733 6.02732 81.7355 5.37943 81.7393 5.36621L83.9736 5L83.9619 16.5635ZM18.5518 7.36523L6.21094 20L0 13.6328V1H12.335L18.5518 7.36523ZM37.1045 13.7314L30.9561 20L18.5527 7.36523L24.792 1H37.1045V13.7314ZM90.04 5.63867C90.04 6.00626 89.9912 6.73479 89.9912 6.8916C90.8364 5.90019 91.9834 5.38381 93.3271 5.38379C94.8243 5.38379 96.0163 6.06068 96.3662 7.15332C96.6153 7.82919 96.667 8.19509 96.667 9.39355V18H93.6768V9.76172C93.6768 8.61531 93.3769 8.09393 92.4824 8.09375C91.781 8.09375 90.9977 8.41063 90.5391 8.98047C90.1811 9.42056 90.04 10.0818 90.04 11.2217V18H86.9023V1.5332L90.04 1V5.63867ZM102.714 5.38086H105.36L104.59 7.62109H102.714V13.7715C102.714 15.336 102.999 15.7539 104.014 15.7539C104.301 15.7539 104.542 15.65 105.07 15.4932L105.456 17.4219C104.59 17.7894 103.771 18 102.999 18C101.507 18 100.304 17.2652 99.9658 16.1729C99.7774 15.6503 99.7773 15.4441 99.7773 14.293V7.62109H98.6211V5.38086H99.7773V2.51562L102.714 2V5.38086ZM47.334 8.30078L52.0898 1H56.0566L50.8555 8.39941L56.6328 17H52.3818L47.334 8.64648V17H43.9395V1H47.334V8.30078ZM64.1729 5C65.5384 5.00002 66.7999 5.70162 67.167 6.70215C67.3218 7.1498 67.374 7.65092 67.374 8.40234V17H64.2246V9.49805C64.2246 8.15185 63.9636 7.60059 63.0713 7.60059C62.5477 7.60066 62.0226 7.8017 61.5479 8.2041C61.1271 8.60328 60.8643 9.2009 60.8643 10.0508V17H57.6094V5.4541L60.3457 5.03027L60.5508 6.60156C60.9212 6.15062 61.4434 5.7515 61.9688 5.50098C62.5985 5.14864 63.4387 5 64.1729 5ZM72.2559 17H69.3262V5.49609L72.2559 5V17ZM79.4756 7.54004C77.9148 7.54025 77.5254 8.83486 77.5254 11.0293C77.5254 13.4724 77.7208 14.7676 79.5244 14.7676C80.161 14.7676 80.6456 14.4176 80.8896 13.8711C81.0852 13.4228 81.1357 12.876 81.1357 12.3262H81.1338V8.28516C80.8413 7.94006 80.2546 7.54004 79.4756 7.54004ZM70.3037 0C71.3812 0.000230965 72.2549 0.895189 72.2549 2C72.2549 3.10481 71.3812 3.99977 70.3037 4C69.2243 4 68.3496 3.10495 68.3496 2C68.3496 0.895046 69.2243 0 70.3037 0Z" fill="white"/>
</svg>
