<svg width="105" height="40" viewBox="0 0 105 40" fill="none" xmlns="http://www.w3.org/2000/svg">
<path fill-rule="evenodd" clip-rule="evenodd" d="M101.667 18.0946C100.115 18.0946 98.8654 17.3938 98.5134 16.3538C98.3159 15.8543 98.3159 15.6586 98.3159 14.5627V8.2052H97.1144V6.07115H98.3159V3.34067L101.369 2.84862V6.06928H104.121L103.32 8.20334H101.369V14.065C101.369 15.5561 101.667 15.9531 102.72 15.9531C103.02 15.9531 103.269 15.8524 103.819 15.7033L104.221 17.541C103.32 17.8933 102.47 18.0946 101.667 18.0946ZM55.9602 17.7945L50.4256 9.2508L55.4088 1.89807H51.6085L47.0538 9.15202V1.89807H43.7994V17.7926H47.0538V9.49496L51.8898 17.7926H55.9602V17.7945ZM66.1332 17.7945V9.2508C66.1332 8.50342 66.0848 8.00578 65.9357 7.56219C65.5855 6.56878 64.384 5.87172 63.0819 5.87172C62.3814 5.87172 61.5804 6.01896 60.9805 6.36936C60.4794 6.61911 59.9821 7.0161 59.63 7.46341L59.4344 5.90154L56.8264 6.32089V17.7945H59.9299V10.8891C59.9299 10.0429 60.1814 9.45023 60.5819 9.05324C61.0327 8.65439 61.5357 8.45496 62.0349 8.45496C62.8863 8.45496 63.134 9.00292 63.134 10.3411V17.7964H66.1332V17.7945ZM71.5783 17.7945V5.82512L68.473 6.31903V17.7926H71.5783V17.7945ZM83.4391 5.82512L83.4261 17.3453C83.4261 18.9855 83.3758 20.676 82.2264 21.6172C81.1255 22.5603 79.4228 22.7616 78.225 22.7616C76.6695 22.7616 75.2687 22.3124 73.7691 21.5669L74.5216 19.4347C75.671 20.0292 76.9732 20.4262 78.0741 20.4262C80.3747 20.4262 80.5275 19.58 80.5275 17.7945V16.7992C80.1754 17.3957 79.0763 17.9417 78.1244 17.9417C74.6688 17.9417 73.4188 15.1106 73.4188 12.231C73.4188 9.15388 74.6204 5.87172 78.2753 5.87172C79.4265 5.87172 80.371 6.47186 80.928 7.09624C80.9783 6.84649 81.1478 6.19043 81.1478 6.19043L83.4391 5.82512ZM80.5256 9.09797C80.2257 8.75317 79.6221 8.35617 78.823 8.35617C77.2209 8.35617 76.8204 9.64593 76.8204 11.8322C76.8204 14.2663 77.0197 15.5561 78.8714 15.5561C79.5253 15.5561 80.0227 15.2075 80.2723 14.6614C80.4716 14.2141 80.5238 13.6699 80.5238 13.1219V9.09797H80.5256ZM95.5197 17.7945V9.59747C95.5197 8.45496 95.4695 8.10643 95.218 7.46341C94.8659 6.42154 93.6681 5.77666 92.1647 5.77666C90.8142 5.77666 89.6611 6.26871 88.8116 7.2118C88.8116 7.06269 88.86 6.36749 88.86 6.01896V1.59986L85.7062 2.10682V17.7945H88.86V11.3383C88.86 10.2535 89.0016 9.6217 89.3612 9.20234C89.8231 8.65997 90.6093 8.35617 91.3134 8.35617C92.2132 8.35617 92.515 8.85195 92.515 9.94414V17.7926H95.5197V17.7945ZM70.0396 0.953125C68.9834 0.953125 68.1283 1.80861 68.1283 2.86539C68.1283 3.92217 68.9834 4.77766 70.0396 4.77766C71.094 4.77766 71.9509 3.92217 71.9509 2.86539C71.9509 1.81047 71.0958 0.953125 70.0396 0.953125ZM70.7494 37.8864L69.1659 39.5936L69.0001 39.7688L68.6387 39.5936C68.0836 39.2842 67.6011 38.8201 67.3515 38.3281C67.1 38.5741 66.8504 38.8313 66.5989 38.9823C66.1258 39.2954 65.5241 39.5172 64.8255 39.5936H63.5681C61.3568 39.3812 60.1944 38.0783 60.1944 35.9499C60.1944 33.2194 62.0945 31.9278 65.8501 31.9278H66.5766V31.4823C66.5766 30.1907 66.299 29.6837 65.1459 29.6837C64.1455 29.6837 63.0297 30.0286 61.6232 30.9139L60.485 28.8879C61.0793 28.5245 61.7052 28.1815 62.346 27.9038C63.4954 27.4024 64.4995 27.2086 65.6004 27.2086C67.6011 27.2086 68.9517 27.956 69.4025 29.2458C69.5534 29.7415 69.6037 30.1162 69.6037 31.3314L69.5851 35.305C69.5832 36.5128 69.6968 37.0943 70.7494 37.8864ZM66.5319 36.6675L66.5281 33.9407H66.3493C64.1958 33.9407 63.4954 34.4607 63.4954 35.8511C63.4954 36.7439 64.0468 37.3906 64.846 37.3906C65.4477 37.3925 66.0792 37.1651 66.5319 36.6675ZM52.4263 23.2871H43.7678V39.1799H46.9197V32.1291H51.0217V29.5514H46.9197V25.8275H52.0258L52.4263 23.2871ZM59.6337 27.4062C59.1326 27.2067 58.9314 27.1583 58.4806 27.1583C57.3312 27.1583 56.18 28.2002 55.6807 28.9941L55.3789 27.4062L52.8753 27.8106V39.178H55.9788V31.9129C55.9788 31.3183 56.0775 30.8188 56.4296 30.4349C56.7277 30.1143 57.2306 29.8888 57.7932 29.8888C58.1453 29.8888 58.5477 29.9894 58.8476 30.1385L59.6337 27.4062ZM83.8098 23.5965V39.1799H86.9115V23.1008L83.8098 23.5965ZM89.9163 32.377L93.7202 27.4546H89.9647L86.9134 32.5242L90.9464 39.178H94.5734L89.9163 32.377ZM81.4701 39.178V30.6343C81.4701 29.8888 81.4217 29.3949 81.2689 28.9476C80.9187 27.9541 79.7153 27.2589 78.415 27.2589C77.7146 27.2589 76.9135 27.4062 76.3137 27.7566C75.8126 28.0063 75.3134 28.3996 74.9631 28.8469L74.7657 27.2869L72.1614 27.7062V39.178H75.2631V32.2782C75.2631 31.4339 75.5164 30.8356 75.9151 30.4367C76.364 30.0416 76.8651 29.8403 77.3662 29.8403C78.2176 29.8403 78.4672 30.3901 78.4672 31.7302V39.1799H81.4701V39.178ZM0.322266 14.2868L6.60754 20.5287L19.0943 8.14184L12.8034 1.9018H0.322266V14.2868ZM12.8034 39.178L19.0943 32.9361L6.60754 20.5306L0.322266 26.7837V39.1799H12.8034V39.178ZM19.0943 32.9361L25.3795 39.178H37.7843V26.6886L31.5903 20.5287L19.0943 32.9361ZM31.5903 20.5287L37.7843 14.3819V1.9018H25.3795L19.0943 8.14184L31.5903 20.5287Z" fill="#202320"/>
</svg>
